<svg xmlns="http://www.w3.org/2000/svg" width="800" height="520" viewBox="0 0 800 520"><rect width="800" height="520" rx="28" fill="#f3f5f8"/><rect x="52" y="80" width="210" height="280" rx="14" fill="#ffffff" stroke="#d9dee7" stroke-width="4"/><path d="M208 80h54v54" stroke="#d9dee7" stroke-width="4" fill="none"/><rect x="90" y="150" width="130" height="16" rx="8" fill="#132b63" opacity=".12"/><rect x="90" y="190" width="110" height="16" rx="8" fill="#132b63" opacity=".12"/><rect x="90" y="230" width="140" height="16" rx="8" fill="#c91f2e" opacity=".16"/><g transform="translate(320 96)"><ellipse cx="110" cy="220" rx="120" ry="34" fill="#dbe4f7"/><circle cx="110" cy="150" r="78" fill="#132b63" opacity=".10"/><circle cx="110" cy="150" r="54" fill="#fff" stroke="#132b63" stroke-width="16"/><rect x="150" y="138" width="130" height="26" rx="13" fill="#c91f2e"/><rect x="162" y="144" width="96" height="14" rx="7" fill="#fff" opacity=".85"/></g><g transform="translate(560 72)"><ellipse cx="70" cy="282" rx="86" ry="24" fill="#dbe4f7"/><rect x="46" y="16" width="48" height="258" rx="20" fill="#ead8b5"/><rect x="52" y="22" width="36" height="246" rx="18" fill="#cfb48a"/><path d="M20 34h100l-8 202H28z" fill="#132b63"/><path d="M28 42h84l-6 186H34z" fill="#1c4288"/><rect x="40" y="130" width="60" height="12" rx="6" fill="#ffffff" opacity=".85"/></g></svg>