<svg xmlns="http://www.w3.org/2000/svg" width="64" height="64" viewBox="0 0 64 64"><circle cx="32" cy="32" r="31" fill="#25D366"/><path d="M18 48l3.3-10.3A18 18 0 1 1 48 44.5c-4.7 4.3-11 6-17.1 4.8L18 48z" fill="#fff"/><path d="M27.7 23.2c-.5-1.1-1-.9-1.5-.9h-1.3c-.4 0-1 .2-1.5.8-.5.6-1.9 1.9-1.9 4.5 0 2.7 2 5.3 2.3 5.7.3.4 4 6.4 9.9 8.7 4.9 1.9 5.9 1.5 6.9 1.4 1-.1 3.3-1.3 3.7-2.6.5-1.3.5-2.4.4-2.6-.2-.2-.6-.4-1.2-.7-.6-.3-3.3-1.7-3.8-1.9-.5-.2-.9-.3-1.3.3-.4.6-1.5 1.9-1.9 2.3-.3.4-.6.4-1.2.1-.6-.3-2.4-.9-4.6-3-1.7-1.5-2.8-3.4-3.1-4-.3-.6 0-.9.2-1.2.2-.2.6-.7.8-1 .3-.3.3-.6.5-1 .1-.4.1-.8 0-1.1-.1-.3-1.2-3.1-1.6-4z" fill="#25D366"/></svg>